<?xml version="1.0" standalone="no"?>
<!DOCTYPE svg PUBLIC "-//W3C//DTD SVG 20010904//EN"
 "http://www.w3.org/TR/2001/REC-SVG-20010904/DTD/svg10.dtd">
<svg version="1.0" xmlns="http://www.w3.org/2000/svg"
 width="171.000000pt" height="183.000000pt" viewBox="0 0 171.000000 183.000000"
 preserveAspectRatio="xMidYMid meet">

<g transform="translate(0.000000,183.000000) scale(0.100000,-0.100000)"
fill="#000000" stroke="none">
<path d="M167 1792 l-27 -28 0 -840 0 -840 33 -32 33 -32 670 0 670 0 27 28
27 28 0 839 0 839 -32 33 -32 33 -671 0 -671 0 -27 -28z m1111 -54 c9 -9 12
-9 12 0 0 10 28 12 113 10 l112 -3 3 -137 c2 -99 -1 -138 -9 -138 -8 0 -9 -4
0 -13 13 -16 16 -1214 2 -1235 -5 -8 -2 -31 6 -54 18 -52 5 -68 -50 -61 -33 5
-36 7 -25 21 11 13 8 12 -13 -2 -24 -15 -59 -16 -353 -14 -179 2 -326 1 -326
-2 0 -3 -108 -4 -240 -2 l-240 3 0 39 c0 42 -8 70 -19 70 -11 0 -31 -47 -31
-70 0 -11 -4 -20 -10 -20 -7 0 -10 268 -10 784 l0 784 31 26 31 26 502 0 c377
0 505 -3 514 -12z m-1032 -1606 c-11 -10 -15 4 -8 28 l7 25 3 -23 c2 -13 1
-26 -2 -30z"/>
<path d="M234 1646 c-6 -26 2 -66 14 -66 4 0 7 20 7 45 0 49 -11 60 -21 21z"/>
<path d="M234 1526 c-6 -26 2 -66 14 -66 4 0 7 20 7 45 0 49 -11 60 -21 21z"/>
<path d="M234 1406 c-6 -26 2 -66 14 -66 4 0 7 20 7 45 0 49 -11 60 -21 21z"/>
<path d="M234 1286 c-6 -26 2 -66 14 -66 4 0 7 20 7 45 0 49 -11 60 -21 21z"/>
<path d="M234 1166 c-6 -26 2 -66 14 -66 4 0 7 20 7 45 0 49 -11 60 -21 21z"/>
<path d="M234 1046 c-6 -26 2 -66 14 -66 4 0 7 20 7 45 0 49 -11 60 -21 21z"/>
<path d="M224 926 c-6 -26 2 -66 14 -66 4 0 7 20 7 45 0 49 -11 60 -21 21z"/>
<path d="M224 806 c-6 -26 2 -66 14 -66 4 0 7 20 7 45 0 49 -11 60 -21 21z"/>
<path d="M224 676 c-6 -26 2 -66 14 -66 4 0 7 20 7 45 0 49 -11 60 -21 21z"/>
<path d="M224 556 c-6 -26 2 -66 14 -66 4 0 7 20 7 45 0 49 -11 60 -21 21z"/>
<path d="M224 436 c-6 -26 2 -66 14 -66 4 0 7 20 7 45 0 49 -11 60 -21 21z"/>
<path d="M224 316 c-6 -26 2 -66 14 -66 4 0 7 20 7 45 0 49 -11 60 -21 21z"/>
</g>
</svg>
