<?xml version="1.0" standalone="no"?>
<!DOCTYPE svg PUBLIC "-//W3C//DTD SVG 20010904//EN"
 "http://www.w3.org/TR/2001/REC-SVG-20010904/DTD/svg10.dtd">
<svg version="1.0" xmlns="http://www.w3.org/2000/svg"
 width="16.000000pt" height="16.000000pt" viewBox="0 0 16.000000 16.000000"
 preserveAspectRatio="xMidYMid meet">

<g transform="translate(0.000000,16.000000) scale(0.100000,-0.100000)"
fill="#000000" stroke="none">
<path d="M75 130 l-80 -6 83 -2 c49 -1 82 2 82 8 0 6 -1 9 -2 8 -2 -1 -39 -5
-83 -8z"/>
<path d="M70 103 c0 -6 -17 -14 -37 -16 -21 -2 0 -4 47 -4 47 0 67 2 45 4 -22
3 -43 10 -47 16 -6 9 -8 9 -8 0z"/>
<path d="M37 43 c24 -2 62 -2 85 0 24 2 5 4 -42 4 -47 0 -66 -2 -43 -4z"/>
<path d="M35 9 c-28 -4 -14 -6 45 -7 84 0 97 4 30 10 -19 2 -53 0 -75 -3z"/>
</g>
</svg>
